<?xml version="1.0" encoding="UTF-8" standalone="no"?>
<!DOCTYPE svg PUBLIC "-//W3C//DTD SVG 1.1//EN"
 "http://www.w3.org/Graphics/SVG/1.1/DTD/svg11.dtd">
<!-- Generated by graphviz version 2.38.0 (20140413.2041)
 -->
<!-- Title: AST Pages: 1 -->
<svg width="2598pt" height="529pt"
 viewBox="0.00 0.00 2598.04 529.22" xmlns="http://www.w3.org/2000/svg" xmlns:xlink="http://www.w3.org/1999/xlink">
<g id="graph0" class="graph" transform="scale(1 1) rotate(0) translate(4 525.22)">
<title>AST</title>
<polygon fill="white" stroke="none" points="-4,4 -4,-525.22 2594.04,-525.22 2594.04,4 -4,4"/>
<!-- 0 -->
<g id="node1" class="node"><title>0</title>
<ellipse fill="none" stroke="black" cx="1264.49" cy="-503.22" rx="48.1917" ry="18"/>
<text text-anchor="middle" x="1264.49" y="-499.52" font-family="Times New Roman,serif" font-size="14.00">Document</text>
</g>
<!-- 1 -->
<g id="node2" class="node"><title>1</title>
<ellipse fill="none" stroke="black" cx="203.489" cy="-431.22" rx="40.0939" ry="18"/>
<text text-anchor="middle" x="203.489" y="-427.52" font-family="Times New Roman,serif" font-size="14.00">Heading</text>
</g>
<!-- 0&#45;&gt;1 -->
<g id="edge1" class="edge"><title>0&#45;&gt;1</title>
<path fill="none" stroke="black" d="M1216.79,-500.435C1081.01,-495.143 680.796,-478.079 349.489,-449.22 316.772,-446.37 280.052,-442.09 251.622,-438.537"/>
<polygon fill="black" stroke="black" points="251.905,-435.045 241.546,-437.265 251.029,-441.99 251.905,-435.045"/>
</g>
<!-- 3 -->
<g id="node4" class="node"><title>3</title>
<ellipse fill="none" stroke="black" cx="398.489" cy="-431.22" rx="40.0939" ry="18"/>
<text text-anchor="middle" x="398.489" y="-427.52" font-family="Times New Roman,serif" font-size="14.00">Heading</text>
</g>
<!-- 0&#45;&gt;3 -->
<g id="edge3" class="edge"><title>0&#45;&gt;3</title>
<path fill="none" stroke="black" d="M1217.22,-499.214C1103.38,-491.858 805.06,-471.891 556.489,-449.22 519.832,-445.877 478.469,-441.401 447.262,-437.881"/>
<polygon fill="black" stroke="black" points="447.42,-434.377 437.089,-436.727 446.631,-441.332 447.42,-434.377"/>
</g>
<!-- 5 -->
<g id="node6" class="node"><title>5</title>
<ellipse fill="none" stroke="black" cx="612.489" cy="-431.22" rx="47.3916" ry="18"/>
<text text-anchor="middle" x="612.489" y="-427.52" font-family="Times New Roman,serif" font-size="14.00">Paragraph</text>
</g>
<!-- 0&#45;&gt;5 -->
<g id="edge5" class="edge"><title>0&#45;&gt;5</title>
<path fill="none" stroke="black" d="M1218.9,-497.326C1102.4,-484.818 794.049,-451.713 667.686,-438.146"/>
<polygon fill="black" stroke="black" points="667.786,-434.637 657.469,-437.05 667.038,-441.597 667.786,-434.637"/>
</g>
<!-- 7 -->
<g id="node8" class="node"><title>7</title>
<ellipse fill="none" stroke="black" cx="829.489" cy="-431.22" rx="47.3916" ry="18"/>
<text text-anchor="middle" x="829.489" y="-427.52" font-family="Times New Roman,serif" font-size="14.00">Paragraph</text>
</g>
<!-- 0&#45;&gt;7 -->
<g id="edge7" class="edge"><title>0&#45;&gt;7</title>
<path fill="none" stroke="black" d="M1221.19,-495.253C1140.88,-482.329 969.131,-454.691 882.207,-440.704"/>
<polygon fill="black" stroke="black" points="882.721,-437.242 872.292,-439.108 881.609,-444.153 882.721,-437.242"/>
</g>
<!-- 9 -->
<g id="node10" class="node"><title>9</title>
<ellipse fill="none" stroke="black" cx="1017.49" cy="-431.22" rx="40.0939" ry="18"/>
<text text-anchor="middle" x="1017.49" y="-427.52" font-family="Times New Roman,serif" font-size="14.00">Heading</text>
</g>
<!-- 0&#45;&gt;9 -->
<g id="edge9" class="edge"><title>0&#45;&gt;9</title>
<path fill="none" stroke="black" d="M1227.24,-491.665C1182.55,-478.997 1107.74,-457.797 1060.59,-444.435"/>
<polygon fill="black" stroke="black" points="1061.25,-440.986 1050.68,-441.626 1059.34,-447.72 1061.25,-440.986"/>
</g>
<!-- 11 -->
<g id="node12" class="node"><title>11</title>
<ellipse fill="none" stroke="black" cx="1178.49" cy="-431.22" rx="47.3916" ry="18"/>
<text text-anchor="middle" x="1178.49" y="-427.52" font-family="Times New Roman,serif" font-size="14.00">Paragraph</text>
</g>
<!-- 0&#45;&gt;11 -->
<g id="edge11" class="edge"><title>0&#45;&gt;11</title>
<path fill="none" stroke="black" d="M1245.4,-486.685C1233.71,-477.169 1218.56,-464.839 1205.64,-454.317"/>
<polygon fill="black" stroke="black" points="1207.49,-451.31 1197.52,-447.712 1203.07,-456.739 1207.49,-451.31"/>
</g>
<!-- 13 -->
<g id="node14" class="node"><title>13</title>
<ellipse fill="none" stroke="black" cx="1350.49" cy="-431.22" rx="47.3916" ry="18"/>
<text text-anchor="middle" x="1350.49" y="-427.52" font-family="Times New Roman,serif" font-size="14.00">Paragraph</text>
</g>
<!-- 0&#45;&gt;13 -->
<g id="edge13" class="edge"><title>0&#45;&gt;13</title>
<path fill="none" stroke="black" d="M1283.58,-486.685C1295.27,-477.169 1310.41,-464.839 1323.34,-454.317"/>
<polygon fill="black" stroke="black" points="1325.91,-456.739 1331.46,-447.712 1321.49,-451.31 1325.91,-456.739"/>
</g>
<!-- 15 -->
<g id="node16" class="node"><title>15</title>
<ellipse fill="none" stroke="black" cx="1573.49" cy="-431.22" rx="40.0939" ry="18"/>
<text text-anchor="middle" x="1573.49" y="-427.52" font-family="Times New Roman,serif" font-size="14.00">Heading</text>
</g>
<!-- 0&#45;&gt;15 -->
<g id="edge15" class="edge"><title>0&#45;&gt;15</title>
<path fill="none" stroke="black" d="M1304.57,-493.141C1362.15,-480.097 1467.96,-456.126 1528.27,-442.465"/>
<polygon fill="black" stroke="black" points="1529.28,-445.825 1538.26,-440.202 1527.73,-438.998 1529.28,-445.825"/>
</g>
<!-- 17 -->
<g id="node18" class="node"><title>17</title>
<ellipse fill="none" stroke="black" cx="1806.49" cy="-431.22" rx="27" ry="18"/>
<text text-anchor="middle" x="1806.49" y="-427.52" font-family="Times New Roman,serif" font-size="14.00">List</text>
</g>
<!-- 0&#45;&gt;17 -->
<g id="edge17" class="edge"><title>0&#45;&gt;17</title>
<path fill="none" stroke="black" d="M1309.3,-496.432C1414.18,-482.888 1673.94,-449.339 1770.01,-436.932"/>
<polygon fill="black" stroke="black" points="1770.64,-440.38 1780.11,-435.628 1769.74,-433.438 1770.64,-440.38"/>
</g>
<!-- 41 -->
<g id="node42" class="node"><title>41</title>
<ellipse fill="none" stroke="black" cx="1938.49" cy="-431.22" rx="40.0939" ry="18"/>
<text text-anchor="middle" x="1938.49" y="-427.52" font-family="Times New Roman,serif" font-size="14.00">Heading</text>
</g>
<!-- 0&#45;&gt;41 -->
<g id="edge41" class="edge"><title>0&#45;&gt;41</title>
<path fill="none" stroke="black" d="M1311.46,-499.254C1410.12,-492.728 1645.99,-475.581 1842.49,-449.22 1858.73,-447.042 1876.41,-444.08 1892.13,-441.239"/>
<polygon fill="black" stroke="black" points="1892.93,-444.65 1902.13,-439.399 1891.66,-437.766 1892.93,-444.65"/>
</g>
<!-- 43 -->
<g id="node44" class="node"><title>43</title>
<ellipse fill="none" stroke="black" cx="2132.49" cy="-431.22" rx="40.0939" ry="18"/>
<text text-anchor="middle" x="2132.49" y="-427.52" font-family="Times New Roman,serif" font-size="14.00">Heading</text>
</g>
<!-- 0&#45;&gt;43 -->
<g id="edge43" class="edge"><title>0&#45;&gt;43</title>
<path fill="none" stroke="black" d="M1311.92,-499.46C1427.55,-492.575 1733.15,-473.441 1987.49,-449.22 2019.85,-446.139 2056.18,-441.878 2084.38,-438.393"/>
<polygon fill="black" stroke="black" points="2084.88,-441.857 2094.38,-437.148 2084.02,-434.911 2084.88,-441.857"/>
</g>
<!-- 45 -->
<g id="node46" class="node"><title>45</title>
<ellipse fill="none" stroke="black" cx="2427.49" cy="-431.22" rx="47.3916" ry="18"/>
<text text-anchor="middle" x="2427.49" y="-427.52" font-family="Times New Roman,serif" font-size="14.00">Paragraph</text>
</g>
<!-- 0&#45;&gt;45 -->
<g id="edge45" class="edge"><title>0&#45;&gt;45</title>
<path fill="none" stroke="black" d="M1311.75,-499.677C1447.2,-492.348 1848.47,-470.35 2181.49,-449.22 2246.5,-445.095 2321.15,-439.867 2371,-436.305"/>
<polygon fill="black" stroke="black" points="2371.53,-439.777 2381.25,-435.571 2371.03,-432.795 2371.53,-439.777"/>
</g>
<!-- 2 -->
<g id="node3" class="node"><title>2</title>
<ellipse fill="none" stroke="black" cx="78.4889" cy="-350.35" rx="78.4777" ry="26.7407"/>
<text text-anchor="middle" x="78.4889" y="-354.15" font-family="Times New Roman,serif" font-size="14.00">Text</text>
<text text-anchor="middle" x="78.4889" y="-339.15" font-family="Times New Roman,serif" font-size="14.00">Text: &#39;Heading 1&#39;</text>
</g>
<!-- 1&#45;&gt;2 -->
<g id="edge2" class="edge"><title>1&#45;&gt;2</title>
<path fill="none" stroke="black" d="M181.141,-416.12C165.114,-406.008 142.979,-392.041 123.365,-379.665"/>
<polygon fill="black" stroke="black" points="125.176,-376.67 114.851,-374.294 121.441,-382.59 125.176,-376.67"/>
</g>
<!-- 4 -->
<g id="node5" class="node"><title>4</title>
<ellipse fill="none" stroke="black" cx="261.489" cy="-350.35" rx="86.0347" ry="26.7407"/>
<text text-anchor="middle" x="261.489" y="-354.15" font-family="Times New Roman,serif" font-size="14.00">Text</text>
<text text-anchor="middle" x="261.489" y="-339.15" font-family="Times New Roman,serif" font-size="14.00">Text: &#39;Heading 1&#45;1&#39;</text>
</g>
<!-- 3&#45;&gt;4 -->
<g id="edge4" class="edge"><title>3&#45;&gt;4</title>
<path fill="none" stroke="black" d="M374.625,-416.482C356.904,-406.28 332.124,-392.015 310.271,-379.434"/>
<polygon fill="black" stroke="black" points="311.844,-376.301 301.431,-374.345 308.352,-382.367 311.844,-376.301"/>
</g>
<!-- 6 -->
<g id="node7" class="node"><title>6</title>
<ellipse fill="none" stroke="black" cx="478.489" cy="-350.35" rx="112.36" ry="26.7407"/>
<text text-anchor="middle" x="478.489" y="-354.15" font-family="Times New Roman,serif" font-size="14.00">Text</text>
<text text-anchor="middle" x="478.489" y="-339.15" font-family="Times New Roman,serif" font-size="14.00">Text: &#39;Content of headi...&#39;</text>
</g>
<!-- 5&#45;&gt;6 -->
<g id="edge6" class="edge"><title>5&#45;&gt;6</title>
<path fill="none" stroke="black" d="M587.911,-415.754C571.26,-405.954 548.669,-392.657 528.338,-380.691"/>
<polygon fill="black" stroke="black" points="529.88,-377.537 519.487,-375.481 526.33,-383.57 529.88,-377.537"/>
</g>
<!-- 8 -->
<g id="node9" class="node"><title>8</title>
<ellipse fill="none" stroke="black" cx="718.489" cy="-350.35" rx="109.703" ry="26.7407"/>
<text text-anchor="middle" x="718.489" y="-354.15" font-family="Times New Roman,serif" font-size="14.00">Text</text>
<text text-anchor="middle" x="718.489" y="-339.15" font-family="Times New Roman,serif" font-size="14.00">Text: &#39;More lines in he...&#39;</text>
</g>
<!-- 7&#45;&gt;8 -->
<g id="edge8" class="edge"><title>7&#45;&gt;8</title>
<path fill="none" stroke="black" d="M808.087,-415.013C794.89,-405.636 777.493,-393.275 761.542,-381.941"/>
<polygon fill="black" stroke="black" points="763.541,-379.068 753.362,-376.129 759.487,-384.775 763.541,-379.068"/>
</g>
<!-- 10 -->
<g id="node11" class="node"><title>10</title>
<ellipse fill="none" stroke="black" cx="932.489" cy="-350.35" rx="86.0347" ry="26.7407"/>
<text text-anchor="middle" x="932.489" y="-354.15" font-family="Times New Roman,serif" font-size="14.00">Text</text>
<text text-anchor="middle" x="932.489" y="-339.15" font-family="Times New Roman,serif" font-size="14.00">Text: &#39;Heading 1&#45;2&#39;</text>
</g>
<!-- 9&#45;&gt;10 -->
<g id="edge10" class="edge"><title>9&#45;&gt;10</title>
<path fill="none" stroke="black" d="M1000.7,-414.638C991.012,-405.653 978.475,-394.02 966.797,-383.184"/>
<polygon fill="black" stroke="black" points="968.996,-380.45 959.285,-376.214 964.235,-385.581 968.996,-380.45"/>
</g>
<!-- 12 -->
<g id="node13" class="node"><title>12</title>
<ellipse fill="none" stroke="black" cx="1149.49" cy="-350.35" rx="112.36" ry="26.7407"/>
<text text-anchor="middle" x="1149.49" y="-354.15" font-family="Times New Roman,serif" font-size="14.00">Text</text>
<text text-anchor="middle" x="1149.49" y="-339.15" font-family="Times New Roman,serif" font-size="14.00">Text: &#39;Content of headi...&#39;</text>
</g>
<!-- 11&#45;&gt;12 -->
<g id="edge12" class="edge"><title>11&#45;&gt;12</title>
<path fill="none" stroke="black" d="M1172.2,-413.107C1169.33,-405.306 1165.82,-395.767 1162.43,-386.542"/>
<polygon fill="black" stroke="black" points="1165.7,-385.305 1158.97,-377.128 1159.13,-387.721 1165.7,-385.305"/>
</g>
<!-- 14 -->
<g id="node15" class="node"><title>14</title>
<ellipse fill="none" stroke="black" cx="1389.49" cy="-350.35" rx="109.703" ry="26.7407"/>
<text text-anchor="middle" x="1389.49" y="-354.15" font-family="Times New Roman,serif" font-size="14.00">Text</text>
<text text-anchor="middle" x="1389.49" y="-339.15" font-family="Times New Roman,serif" font-size="14.00">Text: &#39;More lines in he...&#39;</text>
</g>
<!-- 13&#45;&gt;14 -->
<g id="edge14" class="edge"><title>13&#45;&gt;14</title>
<path fill="none" stroke="black" d="M1358.76,-413.494C1362.68,-405.558 1367.53,-395.761 1372.2,-386.312"/>
<polygon fill="black" stroke="black" points="1375.48,-387.575 1376.78,-377.059 1369.21,-384.472 1375.48,-387.575"/>
</g>
<!-- 16 -->
<g id="node17" class="node"><title>16</title>
<ellipse fill="none" stroke="black" cx="1603.49" cy="-350.35" rx="86.0347" ry="26.7407"/>
<text text-anchor="middle" x="1603.49" y="-354.15" font-family="Times New Roman,serif" font-size="14.00">Text</text>
<text text-anchor="middle" x="1603.49" y="-339.15" font-family="Times New Roman,serif" font-size="14.00">Text: &#39;Heading 1&#45;3&#39;</text>
</g>
<!-- 15&#45;&gt;16 -->
<g id="edge16" class="edge"><title>15&#45;&gt;16</title>
<path fill="none" stroke="black" d="M1580,-413.107C1582.97,-405.306 1586.59,-395.767 1590.1,-386.542"/>
<polygon fill="black" stroke="black" points="1593.4,-387.719 1593.68,-377.128 1586.86,-385.23 1593.4,-387.719"/>
</g>
<!-- 18 -->
<g id="node19" class="node"><title>18</title>
<ellipse fill="none" stroke="black" cx="1734.49" cy="-350.35" rx="27" ry="18"/>
<text text-anchor="middle" x="1734.49" y="-346.65" font-family="Times New Roman,serif" font-size="14.00">Item</text>
</g>
<!-- 17&#45;&gt;18 -->
<g id="edge18" class="edge"><title>17&#45;&gt;18</title>
<path fill="none" stroke="black" d="M1792.95,-415.385C1782.19,-403.598 1766.97,-386.929 1754.76,-373.552"/>
<polygon fill="black" stroke="black" points="1757.3,-371.144 1747.97,-366.119 1752.13,-375.864 1757.3,-371.144"/>
</g>
<!-- 28 -->
<g id="node29" class="node"><title>28</title>
<ellipse fill="none" stroke="black" cx="1806.49" cy="-350.35" rx="27" ry="18"/>
<text text-anchor="middle" x="1806.49" y="-346.65" font-family="Times New Roman,serif" font-size="14.00">Item</text>
</g>
<!-- 17&#45;&gt;28 -->
<g id="edge28" class="edge"><title>17&#45;&gt;28</title>
<path fill="none" stroke="black" d="M1806.49,-413.107C1806.49,-403.082 1806.49,-390.187 1806.49,-378.775"/>
<polygon fill="black" stroke="black" points="1809.99,-378.43 1806.49,-368.431 1802.99,-378.431 1809.99,-378.43"/>
</g>
<!-- 35 -->
<g id="node36" class="node"><title>35</title>
<ellipse fill="none" stroke="black" cx="1878.49" cy="-350.35" rx="27" ry="18"/>
<text text-anchor="middle" x="1878.49" y="-346.65" font-family="Times New Roman,serif" font-size="14.00">Item</text>
</g>
<!-- 17&#45;&gt;35 -->
<g id="edge35" class="edge"><title>17&#45;&gt;35</title>
<path fill="none" stroke="black" d="M1820.03,-415.385C1830.79,-403.598 1846.01,-386.929 1858.22,-373.552"/>
<polygon fill="black" stroke="black" points="1860.85,-375.864 1865.01,-366.119 1855.68,-371.144 1860.85,-375.864"/>
</g>
<!-- 38 -->
<g id="node39" class="node"><title>38</title>
<ellipse fill="none" stroke="black" cx="1950.49" cy="-350.35" rx="27" ry="18"/>
<text text-anchor="middle" x="1950.49" y="-346.65" font-family="Times New Roman,serif" font-size="14.00">Item</text>
</g>
<!-- 17&#45;&gt;38 -->
<g id="edge38" class="edge"><title>17&#45;&gt;38</title>
<path fill="none" stroke="black" d="M1828.57,-420.695C1850.8,-410.802 1885.82,-394.392 1914.49,-377.22 1917.96,-375.144 1921.51,-372.831 1924.98,-370.467"/>
<polygon fill="black" stroke="black" points="1927.16,-373.214 1933.31,-364.586 1923.12,-367.496 1927.16,-373.214"/>
</g>
<!-- 19 -->
<g id="node20" class="node"><title>19</title>
<ellipse fill="none" stroke="black" cx="1420.49" cy="-269.48" rx="47.3916" ry="18"/>
<text text-anchor="middle" x="1420.49" y="-265.78" font-family="Times New Roman,serif" font-size="14.00">Paragraph</text>
</g>
<!-- 18&#45;&gt;19 -->
<g id="edge19" class="edge"><title>18&#45;&gt;19</title>
<path fill="none" stroke="black" d="M1718.55,-335.623C1712.6,-331.13 1705.56,-326.518 1698.49,-323.48 1658.98,-306.51 1543.56,-287.972 1474.49,-277.941"/>
<polygon fill="black" stroke="black" points="1474.63,-274.426 1464.23,-276.465 1473.63,-281.354 1474.63,-274.426"/>
</g>
<!-- 21 -->
<g id="node22" class="node"><title>21</title>
<ellipse fill="none" stroke="black" cx="1579.49" cy="-269.48" rx="27" ry="18"/>
<text text-anchor="middle" x="1579.49" y="-265.78" font-family="Times New Roman,serif" font-size="14.00">List</text>
</g>
<!-- 18&#45;&gt;21 -->
<g id="edge21" class="edge"><title>18&#45;&gt;21</title>
<path fill="none" stroke="black" d="M1717.39,-335.976C1711.56,-331.716 1704.9,-327.158 1698.49,-323.48 1670.39,-307.351 1636.47,-292.677 1612.05,-282.879"/>
<polygon fill="black" stroke="black" points="1613.12,-279.54 1602.53,-279.116 1610.55,-286.049 1613.12,-279.54"/>
</g>
<!-- 20 -->
<g id="node21" class="node"><title>20</title>
<ellipse fill="none" stroke="black" cx="1353.49" cy="-188.61" rx="108.789" ry="26.7407"/>
<text text-anchor="middle" x="1353.49" y="-192.41" font-family="Times New Roman,serif" font-size="14.00">Text</text>
<text text-anchor="middle" x="1353.49" y="-177.41" font-family="Times New Roman,serif" font-size="14.00">Text: &#39;https://example....&#39;</text>
</g>
<!-- 19&#45;&gt;20 -->
<g id="edge20" class="edge"><title>19&#45;&gt;20</title>
<path fill="none" stroke="black" d="M1406.61,-252.138C1399.47,-243.736 1390.5,-233.174 1381.97,-223.135"/>
<polygon fill="black" stroke="black" points="1384.41,-220.603 1375.27,-215.248 1379.07,-225.135 1384.41,-220.603"/>
</g>
<!-- 22 -->
<g id="node23" class="node"><title>22</title>
<ellipse fill="none" stroke="black" cx="1507.49" cy="-188.61" rx="27" ry="18"/>
<text text-anchor="middle" x="1507.49" y="-184.91" font-family="Times New Roman,serif" font-size="14.00">Item</text>
</g>
<!-- 21&#45;&gt;22 -->
<g id="edge22" class="edge"><title>21&#45;&gt;22</title>
<path fill="none" stroke="black" d="M1565.95,-253.645C1555.19,-241.858 1539.97,-225.188 1527.76,-211.812"/>
<polygon fill="black" stroke="black" points="1530.3,-209.404 1520.97,-204.379 1525.13,-214.124 1530.3,-209.404"/>
</g>
<!-- 25 -->
<g id="node26" class="node"><title>25</title>
<ellipse fill="none" stroke="black" cx="1579.49" cy="-188.61" rx="27" ry="18"/>
<text text-anchor="middle" x="1579.49" y="-184.91" font-family="Times New Roman,serif" font-size="14.00">Item</text>
</g>
<!-- 21&#45;&gt;25 -->
<g id="edge25" class="edge"><title>21&#45;&gt;25</title>
<path fill="none" stroke="black" d="M1579.49,-251.367C1579.49,-241.341 1579.49,-228.446 1579.49,-217.035"/>
<polygon fill="black" stroke="black" points="1582.99,-216.69 1579.49,-206.69 1575.99,-216.69 1582.99,-216.69"/>
</g>
<!-- 23 -->
<g id="node24" class="node"><title>23</title>
<ellipse fill="none" stroke="black" cx="1442.49" cy="-107.74" rx="47.3916" ry="18"/>
<text text-anchor="middle" x="1442.49" y="-104.04" font-family="Times New Roman,serif" font-size="14.00">Paragraph</text>
</g>
<!-- 22&#45;&gt;23 -->
<g id="edge23" class="edge"><title>22&#45;&gt;23</title>
<path fill="none" stroke="black" d="M1494.96,-172.403C1485.82,-161.314 1473.24,-146.051 1462.69,-133.25"/>
<polygon fill="black" stroke="black" points="1465.17,-130.753 1456.11,-125.262 1459.76,-135.205 1465.17,-130.753"/>
</g>
<!-- 24 -->
<g id="node25" class="node"><title>24</title>
<ellipse fill="none" stroke="black" cx="1398.49" cy="-26.8701" rx="113.274" ry="26.7407"/>
<text text-anchor="middle" x="1398.49" y="-30.6701" font-family="Times New Roman,serif" font-size="14.00">Text</text>
<text text-anchor="middle" x="1398.49" y="-15.6701" font-family="Times New Roman,serif" font-size="14.00">Text: &#39;email: someemail...&#39;</text>
</g>
<!-- 23&#45;&gt;24 -->
<g id="edge24" class="edge"><title>23&#45;&gt;24</title>
<path fill="none" stroke="black" d="M1433.16,-90.0138C1428.68,-81.9954 1423.15,-72.0768 1417.83,-62.5362"/>
<polygon fill="black" stroke="black" points="1420.76,-60.6069 1412.83,-53.5791 1414.65,-64.0173 1420.76,-60.6069"/>
</g>
<!-- 26 -->
<g id="node27" class="node"><title>26</title>
<ellipse fill="none" stroke="black" cx="1619.49" cy="-107.74" rx="47.3916" ry="18"/>
<text text-anchor="middle" x="1619.49" y="-104.04" font-family="Times New Roman,serif" font-size="14.00">Paragraph</text>
</g>
<!-- 25&#45;&gt;26 -->
<g id="edge26" class="edge"><title>25&#45;&gt;26</title>
<path fill="none" stroke="black" d="M1587.78,-171.268C1593.12,-160.73 1600.19,-146.794 1606.3,-134.754"/>
<polygon fill="black" stroke="black" points="1609.53,-136.107 1610.94,-125.605 1603.29,-132.941 1609.53,-136.107"/>
</g>
<!-- 27 -->
<g id="node28" class="node"><title>27</title>
<ellipse fill="none" stroke="black" cx="1639.49" cy="-26.8701" rx="109.703" ry="26.7407"/>
<text text-anchor="middle" x="1639.49" y="-30.6701" font-family="Times New Roman,serif" font-size="14.00">Text</text>
<text text-anchor="middle" x="1639.49" y="-15.6701" font-family="Times New Roman,serif" font-size="14.00">Text: &#39;address: 123 str...&#39;</text>
</g>
<!-- 26&#45;&gt;27 -->
<g id="edge27" class="edge"><title>26&#45;&gt;27</title>
<path fill="none" stroke="black" d="M1623.83,-89.6265C1625.75,-82.0555 1628.08,-72.8479 1630.36,-63.8785"/>
<polygon fill="black" stroke="black" points="1633.81,-64.5065 1632.87,-53.953 1627.02,-62.7858 1633.81,-64.5065"/>
</g>
<!-- 29 -->
<g id="node30" class="node"><title>29</title>
<ellipse fill="none" stroke="black" cx="1745.49" cy="-269.48" rx="47.3916" ry="18"/>
<text text-anchor="middle" x="1745.49" y="-265.78" font-family="Times New Roman,serif" font-size="14.00">Paragraph</text>
</g>
<!-- 28&#45;&gt;29 -->
<g id="edge29" class="edge"><title>28&#45;&gt;29</title>
<path fill="none" stroke="black" d="M1794.73,-334.143C1786.15,-323.054 1774.35,-307.791 1764.45,-294.99"/>
<polygon fill="black" stroke="black" points="1767.15,-292.771 1758.27,-287.002 1761.62,-297.053 1767.15,-292.771"/>
</g>
<!-- 31 -->
<g id="node32" class="node"><title>31</title>
<ellipse fill="none" stroke="black" cx="1866.49" cy="-269.48" rx="27" ry="18"/>
<text text-anchor="middle" x="1866.49" y="-265.78" font-family="Times New Roman,serif" font-size="14.00">List</text>
</g>
<!-- 28&#45;&gt;31 -->
<g id="edge31" class="edge"><title>28&#45;&gt;31</title>
<path fill="none" stroke="black" d="M1818.34,-333.768C1827.03,-322.352 1838.96,-306.664 1848.78,-293.764"/>
<polygon fill="black" stroke="black" points="1851.59,-295.84 1854.86,-285.762 1846.02,-291.601 1851.59,-295.84"/>
</g>
<!-- 30 -->
<g id="node31" class="node"><title>30</title>
<ellipse fill="none" stroke="black" cx="1731.49" cy="-188.61" rx="107.46" ry="26.7407"/>
<text text-anchor="middle" x="1731.49" y="-192.41" font-family="Times New Roman,serif" font-size="14.00">Text</text>
<text text-anchor="middle" x="1731.49" y="-177.41" font-family="Times New Roman,serif" font-size="14.00">Text: &#39;https://google.c...&#39;</text>
</g>
<!-- 29&#45;&gt;30 -->
<g id="edge30" class="edge"><title>29&#45;&gt;30</title>
<path fill="none" stroke="black" d="M1742.45,-251.367C1741.11,-243.796 1739.47,-234.588 1737.88,-225.619"/>
<polygon fill="black" stroke="black" points="1741.31,-224.927 1736.12,-215.693 1734.42,-226.151 1741.31,-224.927"/>
</g>
<!-- 32 -->
<g id="node33" class="node"><title>32</title>
<ellipse fill="none" stroke="black" cx="1883.49" cy="-188.61" rx="27" ry="18"/>
<text text-anchor="middle" x="1883.49" y="-184.91" font-family="Times New Roman,serif" font-size="14.00">Item</text>
</g>
<!-- 31&#45;&gt;32 -->
<g id="edge32" class="edge"><title>31&#45;&gt;32</title>
<path fill="none" stroke="black" d="M1870.18,-251.367C1872.36,-241.238 1875.18,-228.18 1877.65,-216.682"/>
<polygon fill="black" stroke="black" points="1881.12,-217.203 1879.81,-206.69 1874.28,-215.728 1881.12,-217.203"/>
</g>
<!-- 33 -->
<g id="node34" class="node"><title>33</title>
<ellipse fill="none" stroke="black" cx="1883.49" cy="-107.74" rx="47.3916" ry="18"/>
<text text-anchor="middle" x="1883.49" y="-104.04" font-family="Times New Roman,serif" font-size="14.00">Paragraph</text>
</g>
<!-- 32&#45;&gt;33 -->
<g id="edge33" class="edge"><title>32&#45;&gt;33</title>
<path fill="none" stroke="black" d="M1883.49,-170.497C1883.49,-160.471 1883.49,-147.576 1883.49,-136.165"/>
<polygon fill="black" stroke="black" points="1886.99,-135.82 1883.49,-125.82 1879.99,-135.82 1886.99,-135.82"/>
</g>
<!-- 34 -->
<g id="node35" class="node"><title>34</title>
<ellipse fill="none" stroke="black" cx="1883.49" cy="-26.8701" rx="96.7474" ry="26.7407"/>
<text text-anchor="middle" x="1883.49" y="-30.6701" font-family="Times New Roman,serif" font-size="14.00">Text</text>
<text text-anchor="middle" x="1883.49" y="-15.6701" font-family="Times New Roman,serif" font-size="14.00">Text: &#39;email: blahblah&#39;</text>
</g>
<!-- 33&#45;&gt;34 -->
<g id="edge34" class="edge"><title>33&#45;&gt;34</title>
<path fill="none" stroke="black" d="M1883.49,-89.6265C1883.49,-82.137 1883.49,-73.0458 1883.49,-64.168"/>
<polygon fill="black" stroke="black" points="1886.99,-63.9529 1883.49,-53.953 1879.99,-63.953 1886.99,-63.9529"/>
</g>
<!-- 36 -->
<g id="node37" class="node"><title>36</title>
<ellipse fill="none" stroke="black" cx="2015.49" cy="-269.48" rx="47.3916" ry="18"/>
<text text-anchor="middle" x="2015.49" y="-265.78" font-family="Times New Roman,serif" font-size="14.00">Paragraph</text>
</g>
<!-- 35&#45;&gt;36 -->
<g id="edge36" class="edge"><title>35&#45;&gt;36</title>
<path fill="none" stroke="black" d="M1895.73,-336.215C1901.57,-331.971 1908.2,-327.362 1914.49,-323.48 1934.91,-310.873 1958.62,-298.327 1977.94,-288.608"/>
<polygon fill="black" stroke="black" points="1979.65,-291.668 1987.04,-284.076 1976.53,-285.402 1979.65,-291.668"/>
</g>
<!-- 37 -->
<g id="node38" class="node"><title>37</title>
<ellipse fill="none" stroke="black" cx="2033.49" cy="-188.61" rx="104.804" ry="26.7407"/>
<text text-anchor="middle" x="2033.49" y="-192.41" font-family="Times New Roman,serif" font-size="14.00">Text</text>
<text text-anchor="middle" x="2033.49" y="-177.41" font-family="Times New Roman,serif" font-size="14.00">Text: &#39;https://parsiya....&#39;</text>
</g>
<!-- 36&#45;&gt;37 -->
<g id="edge37" class="edge"><title>36&#45;&gt;37</title>
<path fill="none" stroke="black" d="M2019.39,-251.367C2021.12,-243.796 2023.22,-234.588 2025.27,-225.619"/>
<polygon fill="black" stroke="black" points="2028.72,-226.221 2027.54,-215.693 2021.9,-224.664 2028.72,-226.221"/>
</g>
<!-- 39 -->
<g id="node40" class="node"><title>39</title>
<ellipse fill="none" stroke="black" cx="2243.49" cy="-269.48" rx="47.3916" ry="18"/>
<text text-anchor="middle" x="2243.49" y="-265.78" font-family="Times New Roman,serif" font-size="14.00">Paragraph</text>
</g>
<!-- 38&#45;&gt;39 -->
<g id="edge39" class="edge"><title>38&#45;&gt;39</title>
<path fill="none" stroke="black" d="M1966.45,-335.682C1972.41,-331.195 1979.44,-326.571 1986.49,-323.48 2052.14,-294.692 2134.19,-281.27 2187.67,-275.2"/>
<polygon fill="black" stroke="black" points="2188.07,-278.677 2197.64,-274.116 2187.32,-271.718 2188.07,-278.677"/>
</g>
<!-- 40 -->
<g id="node41" class="node"><title>40</title>
<ellipse fill="none" stroke="black" cx="2258.49" cy="-188.61" rx="102.561" ry="26.7407"/>
<text text-anchor="middle" x="2258.49" y="-192.41" font-family="Times New Roman,serif" font-size="14.00">Text</text>
<text text-anchor="middle" x="2258.49" y="-177.41" font-family="Times New Roman,serif" font-size="14.00">Text: &#39;http://parsiya.i...&#39;</text>
</g>
<!-- 39&#45;&gt;40 -->
<g id="edge40" class="edge"><title>39&#45;&gt;40</title>
<path fill="none" stroke="black" d="M2246.74,-251.367C2248.18,-243.796 2249.93,-234.588 2251.64,-225.619"/>
<polygon fill="black" stroke="black" points="2255.1,-226.171 2253.53,-215.693 2248.22,-224.863 2255.1,-226.171"/>
</g>
<!-- 42 -->
<g id="node43" class="node"><title>42</title>
<ellipse fill="none" stroke="black" cx="2073.49" cy="-350.35" rx="78.4777" ry="26.7407"/>
<text text-anchor="middle" x="2073.49" y="-354.15" font-family="Times New Roman,serif" font-size="14.00">Text</text>
<text text-anchor="middle" x="2073.49" y="-339.15" font-family="Times New Roman,serif" font-size="14.00">Text: &#39;Heading 2&#39;</text>
</g>
<!-- 41&#45;&gt;42 -->
<g id="edge42" class="edge"><title>41&#45;&gt;42</title>
<path fill="none" stroke="black" d="M1962,-416.482C1979.67,-406.164 2004.44,-391.689 2026.15,-379.004"/>
<polygon fill="black" stroke="black" points="2028.06,-381.945 2034.93,-373.879 2024.53,-375.901 2028.06,-381.945"/>
</g>
<!-- 44 -->
<g id="node45" class="node"><title>44</title>
<ellipse fill="none" stroke="black" cx="2256.49" cy="-350.35" rx="86.0347" ry="26.7407"/>
<text text-anchor="middle" x="2256.49" y="-354.15" font-family="Times New Roman,serif" font-size="14.00">Text</text>
<text text-anchor="middle" x="2256.49" y="-339.15" font-family="Times New Roman,serif" font-size="14.00">Text: &#39;Heading 2&#45;1&#39;</text>
</g>
<!-- 43&#45;&gt;44 -->
<g id="edge44" class="edge"><title>43&#45;&gt;44</title>
<path fill="none" stroke="black" d="M2154.66,-416.12C2170.24,-406.207 2191.65,-392.589 2210.82,-380.398"/>
<polygon fill="black" stroke="black" points="2212.88,-383.236 2219.44,-374.915 2209.12,-377.329 2212.88,-383.236"/>
</g>
<!-- 46 -->
<g id="node47" class="node"><title>46</title>
<ellipse fill="none" stroke="black" cx="2475.49" cy="-350.35" rx="114.603" ry="26.7407"/>
<text text-anchor="middle" x="2475.49" y="-354.15" font-family="Times New Roman,serif" font-size="14.00">Text</text>
<text text-anchor="middle" x="2475.49" y="-339.15" font-family="Times New Roman,serif" font-size="14.00">Text: &#39;Heading 2&#45;1 cont...&#39;</text>
</g>
<!-- 45&#45;&gt;46 -->
<g id="edge46" class="edge"><title>45&#45;&gt;46</title>
<path fill="none" stroke="black" d="M2437.67,-413.494C2442.6,-405.393 2448.71,-395.352 2454.57,-385.721"/>
<polygon fill="black" stroke="black" points="2457.63,-387.421 2459.84,-377.059 2451.65,-383.782 2457.63,-387.421"/>
</g>
</g>
</svg>
